<?xml version="1.0" encoding="UTF-8"?>
<svg width="478px" height="971px" viewBox="0 0 478 971" version="1.1" xmlns="http://www.w3.org/2000/svg" xmlns:xlink="http://www.w3.org/1999/xlink">
    <title>iPhone 13 Pro Max</title>
    <g id="iPhone-13-Pro-Max" stroke="none" stroke-width="1" fill="none" fill-rule="evenodd">
        <path d="M0,186 L0.214723324,186 C0.71819771,186 0.988189833,186.069619 1.23263428,186.20035 C1.47707872,186.33108 1.66892015,186.522921 1.79965047,186.767366 C1.93038079,187.01181 2,187.281802 2,187.785277 L2,217.214723 C2,217.718198 1.93038079,217.98819 1.79965047,218.232634 C1.66892015,218.477079 1.47707872,218.66892 1.23263428,218.79965 C0.988189833,218.930381 0.71819771,219 0.214723324,219 L0,219 L0,219 L0,186 Z" id="Button" fill="#181818" transform="translate(1.000000, 202.500000) scale(-1, 1) translate(-1.000000, -202.500000) "></path>
        <path d="M0,334 L0.214723324,334 C0.71819771,334 0.988189833,334.069619 1.23263428,334.20035 C1.47707872,334.33108 1.66892015,334.522921 1.79965047,334.767366 C1.93038079,335.01181 2,335.281802 2,335.785277 L2,396.214723 C2,396.718198 1.93038079,396.98819 1.79965047,397.232634 C1.66892015,397.477079 1.47707872,397.66892 1.23263428,397.79965 C0.988189833,397.930381 0.71819771,398 0.214723324,398 L0,398 L0,398 L0,334 Z" id="Button-Copy-4" fill="#181818" transform="translate(1.000000, 366.000000) scale(-1, 1) translate(-1.000000, -366.000000) "></path>
        <path d="M0,250 L0.214723324,250 C0.71819771,250 0.988189833,250.069619 1.23263428,250.20035 C1.47707872,250.33108 1.66892015,250.522921 1.79965047,250.767366 C1.93038079,251.01181 2,251.281802 2,251.785277 L2,312.214723 C2,312.718198 1.93038079,312.98819 1.79965047,313.232634 C1.66892015,313.477079 1.47707872,313.66892 1.23263428,313.79965 C0.988189833,313.930381 0.71819771,314 0.214723324,314 L0,314 L0,314 L0,250 Z" id="Button-Copy-3" fill="#181818" transform="translate(1.000000, 282.000000) scale(-1, 1) translate(-1.000000, -282.000000) "></path>
        <path d="M477.785277,273 L478,273 L478,273 L478,375 L477.785277,375 C477.281802,375 477.01181,374.930381 476.767366,374.79965 C476.522921,374.66892 476.33108,374.477079 476.20035,374.232634 C476.069619,373.98819 476,373.718198 476,373.214723 L476,274.785277 C476,274.281802 476.069619,274.01181 476.20035,273.767366 C476.33108,273.522921 476.522921,273.33108 476.767366,273.20035 C477.01181,273.069619 477.281802,273 477.785277,273 Z" id="Button-Copy" fill="#181818" transform="translate(477.000000, 324.000000) scale(-1, 1) translate(-477.000000, -324.000000) "></path>
        <path d="M402.689362,-1.13686838e-13 C443.177709,-1.21124427e-13 476,32.8222908 476,73.3106383 L476,897.689362 C476,938.177709 443.177709,971 402.689362,971 L75.3106383,971 C34.8222908,971 2,938.177709 2,897.689362 L2,73.3106383 C2,32.8222908 34.8222908,-9.20383942e-14 75.3106383,-1.13686838e-13 L402.689362,-1.13686838e-13 Z M400,23 L78,23 C48.7289083,23 25,46.7289083 25,76 L25,76 L25,896 C25,925.271092 48.7289083,949 78,949 L78,949 L400,949 C429.271092,949 453,925.271092 453,896 L453,896 L453,76 C453,46.7289083 429.271092,23 400,23 L400,23 Z" id="outter" fill="#36353A"></path>
        <path d="M399,8 C437.107648,8 468,38.8923523 468,77 L468,894 C468,932.107648 437.107648,963 399,963 L79,963 C40.8923523,963 10,932.107648 10,894 L10,77 C10,38.8923523 40.8923523,8 79,8 L399,8 Z M320.004138,28.7750617 L320,29 L320,32 C320,44.7025492 309.702549,55 297,55 L181,55 C168.297451,55 158,44.7025492 158,32 L158,29 C158,25.6862915 155.313708,23 152,23 L78,23 C48.7289083,23 25,46.7289083 25,76 L25,76 L25,896 C25,925.271092 48.7289083,949 78,949 L78,949 L400,949 C429.271092,949 453,925.271092 453,896 L453,896 L453,76 C453,46.7289083 429.271092,23 400,23 L400,23 L326,23 C322.761603,23 320.122428,25.5655749 320.004138,28.7750617 Z" id="inner" fill="#000000"></path>
        <path d="M207.5,10 L270.5,10 C271.880712,10 273,11.1192881 273,12.5 C273,13.8807119 271.880712,15 270.5,15 L207.5,15 C206.119288,15 205,13.8807119 205,12.5 C205,11.1192881 206.119288,10 207.5,10 Z" id="Speaker" fill="#181818"></path>
        <circle id="Camera" fill="#181818" cx="183" cy="34" r="7"></circle>
    </g>
</svg>